<svg width="741" height="215" viewBox="0 0 741 215" fill="none" xmlns="http://www.w3.org/2000/svg">
	<path d="M735.9 111.809C738.385 111.809 740.4 110.196 740.4 108.205C740.4 106.214 738.385 104.601 735.9 104.601C733.415 104.601 731.4 106.214 731.4 108.205C731.4 110.196 733.415 111.809 735.9 111.809Z" fill="#A2BDD4"/>
	<path d="M13.5 7.20834C15.9853 7.20834 18 5.5947 18 3.60417C18 1.61365 15.9853 0 13.5 0C11.0147 0 9 1.61365 9 3.60417C9 5.5947 11.0147 7.20834 13.5 7.20834Z" fill="#A2BDD4"/>
	<path d="M558.5 24.0278C560.985 24.0278 563 22.4142 563 20.4236C563 18.4331 560.985 16.8195 558.5 16.8195C556.015 16.8195 554 18.4331 554 20.4236C554 22.4142 556.015 24.0278 558.5 24.0278Z" fill="#A2BDD4"/>
	<path d="M419.1 121.821H341.6L290.3 80.7333H108.9L15 5.52638L15.9 4.80554L109.4 79.7722H290.8L342.1 120.86H418.6L435 107.724H735.9V108.686H435.5L419.1 121.821Z" fill="#A2BDD4"/>
	<path d="M383.2 167.634C380.4 167.634 378.1 165.791 378.1 163.549C378.1 161.306 380.4 159.464 383.2 159.464C386 159.464 388.3 161.306 388.3 163.549C388.3 165.791 386 167.634 383.2 167.634ZM383.2 160.425C381.1 160.425 379.3 161.787 379.3 163.549C379.3 165.231 381 166.672 383.2 166.672C385.3 166.672 387.1 165.311 387.1 163.549C387.1 161.787 385.3 160.425 383.2 160.425Z" fill="#A2BDD4"/>
	<path d="M13.5 180.448C15.9853 180.448 18 178.834 18 176.844C18 174.853 15.9853 173.24 13.5 173.24C11.0147 173.24 9 174.853 9 176.844C9 178.834 11.0147 180.448 13.5 180.448Z" fill="#A2BDD4"/>
	<path d="M13.9999 177.165L13.1 176.444L61.4 137.759H207.5L239.2 163.229H378.7V164.19H238.7L207 138.8H61.9L13.9999 177.165Z" fill="#A2BDD4"/>
	<path d="M287.4 134.315H501.2L595.4 58.7878L594.6 58.067L500.7 133.274H287.9L235.7 91.4656H17.9V92.4267H235.2L287.4 134.315Z" fill="#D5E4EC"/>
	<path d="M282.2 140.562H504L595.4 67.2776L594.6 66.6368L503.5 139.601H282.7L229.7 97.072H9.59998V98.0331H229.1L282.2 140.562Z" fill="#D5E4EC"/>
	<path d="M290.7 127.828H498.7L595.4 50.3782L594.6 49.6573L498.2 126.867H291.2L199 53.0212L198.1 53.7421L290.7 127.828Z" fill="#D5E4EC"/>
	<path d="M63.7 180.849H211.9L241.6 157.061H595V156.1H241.1L211.4 179.888H63.7V180.849Z" fill="#D5E4EC"/>
	<path d="M595 149.533H134.4V150.525H595V149.533Z" fill="#D5E4EC"/>
	<path d="M124.8 150.013C124.8 147.771 127.1 145.929 129.9 145.929C132.7 145.929 135 147.771 135 150.013C135 152.256 132.7 154.098 129.9 154.098C127.1 154.098 124.8 152.256 124.8 150.013ZM126.1 150.013C126.1 151.695 127.8 153.137 130 153.137C132.1 153.137 133.9 151.775 133.9 150.013C133.9 148.331 132.2 146.89 130 146.89C127.8 146.89 126.1 148.251 126.1 150.013Z" fill="#D5E4EC"/>
	<path d="M0 97.7928C0 95.5503 2.30001 93.7081 5.10001 93.7081C7.90001 93.7081 10.2 95.5503 10.2 97.7928C10.2 100.035 7.90001 101.878 5.10001 101.878C2.30001 101.878 0 100.035 0 97.7928ZM1.19998 97.7928C1.19998 99.4748 2.90001 100.916 5.10001 100.916C7.20001 100.916 9 99.5549 9 97.7928C9 96.1109 7.30001 94.6692 5.10001 94.6692C3.00001 94.6692 1.19998 96.1109 1.19998 97.7928Z" fill="#D5E4EC"/>
	<path d="M17.9 95.2298C20.3853 95.2298 22.4 93.6162 22.4 91.6256C22.4 89.6351 20.3853 88.0215 17.9 88.0215C15.4147 88.0215 13.4 89.6351 13.4 91.6256C13.4 93.6162 15.4147 95.2298 17.9 95.2298Z" fill="#D5E4EC"/>
	<path d="M63.7 183.972C66.1852 183.972 68.2 182.359 68.2 180.368C68.2 178.378 66.1852 176.764 63.7 176.764C61.2147 176.764 59.2 178.378 59.2 180.368C59.2 182.359 61.2147 183.972 63.7 183.972Z" fill="#D5E4EC"/>
	<path d="M198.5 57.2734C200.985 57.2734 203 55.6598 203 53.6692C203 51.6787 200.985 50.0651 198.5 50.0651C196.015 50.0651 194 51.6787 194 53.6692C194 55.6598 196.015 57.2734 198.5 57.2734Z" fill="#D5E4EC"/>
	<path d="M241.4 211.844H164.5V210.883H240.9L278.2 181.009H446.2V181.97H278.7L241.4 211.844Z" fill="#A2BDD4"/>
	<path d="M164.5 214.968C166.985 214.968 169 213.354 169 211.364C169 209.373 166.985 207.76 164.5 207.76C162.015 207.76 160 209.373 160 211.364C160 213.354 162.015 214.968 164.5 214.968Z" fill="#A2BDD4"/>
	<path d="M449.5 185.014C451.985 185.014 454 183.4 454 181.41C454 179.419 451.985 177.805 449.5 177.805C447.015 177.805 445 179.419 445 181.41C445 183.4 447.015 185.014 449.5 185.014Z" fill="#A2BDD4"/>
</svg>
