<svg width="845" height="680" viewBox="0 0 845 680" fill="none" xmlns="http://www.w3.org/2000/svg">
    <path d="M627.4 694.482C637.5 690.718 647.9 687.594 658.2 684.55C665 682.548 672.1 680.386 678.8 678.223C681.3 677.422 682.5 677.022 685.1 676.141L688.1 675.18L690.9 676.381C714 686.232 739.8 694.162 774.1 701.85C827.2 684.951 880 668.051 938.5 649.39L939 649.23L939.6 649.15C994.6 639.619 1053.2 629.607 1111.3 620.236C1138.1 611.907 1161.7 604.538 1183.6 597.73L1184 597.57L1184.5 597.49C1226.8 589.561 1265 582.513 1304.4 577.146L1306.7 587.799C1267.9 593.085 1230 600.053 1188.1 607.902C1166.2 614.71 1142.6 622.078 1115.7 630.408L1115.2 630.568L1114.6 630.648C1056.6 640.019 998 650.031 943 659.562C883.9 678.383 830.6 695.443 777 712.503L774.9 713.143L772.7 712.663C728.3 702.731 703 693.441 687.5 686.953C686.5 687.274 685.5 687.594 684.2 688.074C677.3 690.397 670.1 692.48 663.1 694.562C648.2 698.967 632.8 703.612 619.5 709.94L612.6 700.649C617.2 698.487 622.2 696.404 627.4 694.482Z" fill="#E1E9F0"/>
    <path d="M609.8 674.859L616.3 683.589C604.2 689.436 591.8 696.404 577.3 705.615C577.2 705.695 577.1 705.775 577 705.775C574 720.191 573.4 733.887 575 747.743L575.3 749.986L573.4 751.668C570.3 754.391 567.1 757.194 563.8 759.997C566.2 767.606 569.3 775.695 573.6 785.867L574.8 788.751L572.2 790.993C570.4 792.515 569.2 793.476 567.5 794.758C567.6 806.451 566 815.501 562.4 824.632L550.3 821.508C553.8 812.938 555.1 804.288 554.8 792.595L554.7 790.192L557 788.59C558.5 787.549 559.5 786.828 560.4 786.108C556.2 775.856 553.1 767.606 550.7 759.677L549.9 756.954L552.3 754.952C555.7 752.148 559 749.185 562.2 746.382C560.7 731.805 561.7 717.228 565 702.091L565.4 700.248L567.3 699.047C568.2 698.486 568.6 698.166 569.5 697.605C584.3 688.154 597.2 680.946 609.8 674.859Z" fill="#E1E9F0"/>
    <path d="M625.4 668.372C634.7 664.928 644.2 661.965 653.5 659.001C660.6 656.759 668 654.436 674.9 652.033C677.2 651.232 678.4 650.752 680.9 649.951L683.9 648.909L686.7 650.191C708.3 660.363 732.5 668.532 765.2 676.702C816.9 659.642 867.7 642.742 923.8 624.001L924.3 623.841L924.9 623.76C977.8 614.47 1034.7 604.618 1092.6 595.328C1116.1 587.799 1139.6 580.27 1163.1 572.741L1163.5 572.581L1164 572.501C1204.5 564.972 1244.2 557.764 1284.9 552.718L1286.8 562.81C1246.7 567.776 1207.4 574.904 1167.3 582.353C1143.8 589.881 1120.3 597.41 1096.8 604.939L1096.3 605.099L1095.7 605.179C1037.9 614.47 981 624.321 928.2 633.532C871.4 652.434 820.2 669.493 767.9 686.793L765.8 687.514L763.6 686.953C730.3 678.704 705.3 670.454 683.1 660.203C682.2 660.523 681.3 660.843 680 661.244C672.8 663.727 665.3 666.129 658.1 668.372C643.9 672.857 629.2 677.423 616.2 683.429L609.8 674.619C614.9 672.457 620.1 670.374 625.4 668.372Z" fill="#E1E9F0"/>
    <path d="M608.8 648.509L614.7 656.758C597.1 664.847 580.3 674.218 567.6 681.347C567.2 681.587 566.8 681.747 566.5 681.987C561.2 697.445 558.5 711.942 558.2 726.279V728.361L556.2 729.722C550.7 733.647 546.2 736.851 542 739.814C543.8 748.144 546.4 756.794 549.9 766.085L551 768.968L548.2 770.97C545.8 772.652 544.3 773.773 542.1 775.215C542 784.346 541.6 793.957 539 803.728L527.3 801.806C529.8 792.035 530.1 782.183 530.1 772.892V770.57L532.4 769.128C534.5 767.767 535.9 766.885 537.4 765.844C533.9 756.313 531.4 747.343 529.6 738.693L529.1 736.05L531.6 734.288C536 731.244 540.6 727.96 546.3 723.876C546.8 708.898 549.8 693.761 555.6 677.662L556.2 676.06L557.9 675.099C559 674.459 559.6 674.138 560.7 673.497C573.7 666.289 590.8 656.838 608.8 648.509Z" fill="#E1E9F0"/>
    <path d="M626 641.54C633.8 638.656 641.7 636.013 649.4 633.37C657 630.807 664.8 628.244 672.2 625.441C674.4 624.64 675.6 624.16 677.9 623.359L680.9 622.237L683.7 623.759C707.4 636.494 734 644.663 757.1 651.071C806.7 633.851 855.1 616.871 908.6 598.049L909.1 597.889L909.7 597.809C954.3 589.72 1013 579.228 1072 569.697C1097.4 561.207 1119.6 553.758 1140 547.03L1140.5 546.87L1141 546.79C1179.2 539.582 1220 532.213 1261.3 527.408L1263 536.859C1222.3 541.584 1182 548.873 1144.2 556.001C1123.8 562.809 1101.6 570.257 1076.2 578.747L1075.7 578.907L1075.1 578.987C1016.3 588.438 957.7 598.93 913 607.02C858.9 626.082 810 643.222 759.9 660.602L757.8 661.322L755.6 660.762C732.1 654.354 705 646.105 680.1 633.29C679.3 633.61 678.5 633.931 677.4 634.331C669.7 637.215 661.8 639.858 654.2 642.421C641 646.826 627.4 651.471 614.9 656.998L609.1 648.668C614.4 646.025 620.2 643.702 626 641.54Z" fill="#E1E9F0"/>
    <path d="M609 621.918L614.4 629.687C594.7 638.417 575.9 648.028 558.4 657.078C557.6 657.479 557.1 657.799 556.5 658.119C548.5 674.699 543.5 690.076 541.1 704.973L540.8 706.816L539 707.937C533.5 711.301 526.5 715.626 519.3 719.951C520.1 728.921 521.9 737.811 524.7 747.102L525.5 749.905L522.7 751.667C519.5 753.67 517.5 754.951 514.6 756.633C514.4 758.796 514.3 760.958 514.1 763.04C513.6 770.008 513.1 777.297 512 784.425L501 783.304C502.1 776.416 502.5 769.368 503 762.56C503.2 759.757 503.4 756.873 503.6 753.99L503.8 751.908L505.9 750.706C508.9 748.944 510.7 747.903 513 746.461C510.3 736.85 508.7 727.64 508 718.189L507.8 715.786L510.2 714.344C517.4 709.939 524.6 705.534 530.4 702.01C533.1 686.552 538.5 670.694 546.8 653.554L547.4 652.193L548.9 651.392C550.3 650.671 551 650.27 552.4 649.55C570 640.499 589 630.808 609 621.918Z" fill="#E1E9F0"/>
    <path d="M678.7 595.167L681.4 596.769C699.8 607.341 720.9 615.911 749.7 624.641C796.7 607.341 842.4 590.201 892.9 571.219L893.4 571.059L894 570.979C956.1 559.206 1004.2 550.556 1049.6 543.107C1073.8 534.537 1095.1 527.089 1114.5 520.281L1115 520.121L1115.5 520.04C1151 513.233 1192.3 505.544 1233.8 500.979L1235.3 509.789C1194.5 514.274 1153.7 521.883 1118.6 528.61C1099.2 535.418 1077.9 542.867 1053.7 551.517L1053.2 551.677L1052.6 551.757C1007.2 559.286 959.3 567.856 897.3 579.629C846.2 598.771 800.1 616.151 752.4 633.611L750.3 634.412L748.1 633.772C718.7 624.961 696.9 616.231 677.9 605.739C677.2 606.06 676.5 606.3 675.5 606.7C666.9 610.144 658 613.348 649.5 616.472C637.8 620.716 625.8 625.041 614.5 629.927L609.2 622.078C620.9 617.032 633.1 612.547 644.9 608.302C653.4 605.259 662.1 602.055 670.5 598.691C672.6 597.89 673.6 597.41 675.8 596.529L678.7 595.167Z" fill="#E1E9F0"/>
    <path d="M610 595.167L614.8 602.455C593.3 611.586 572.4 621.597 549.3 632.81C548.1 633.371 547.4 633.771 546.5 634.172C535.5 652.193 528.2 667.971 523.4 683.829L522.9 685.351L520.9 686.472C512.6 691.037 504 695.763 495.5 700.408C495 710.019 495.7 719.39 497.6 728.841L498.1 731.404L495.5 732.926C491.9 734.928 488.4 736.93 484.9 738.772C483.3 747.583 482.5 756.232 481.6 765.443L481.5 766.564L471.2 765.924L471.3 764.802C472.2 755.271 473.1 745.42 475 735.729L475.3 733.887L477.2 732.846C480.3 731.164 483.6 729.402 486.9 727.559C485.2 717.708 484.7 708.017 485.3 697.925L485.4 695.843L487.5 694.722C496.3 689.996 505.2 685.11 513.8 680.305C518.9 664.126 526.6 647.868 537.9 629.446L538.6 628.325L539.9 627.684C541.6 626.883 542.4 626.483 544 625.682C567.2 614.469 588.2 604.377 610 595.167Z" fill="#E1E9F0"/>
    <path d="M677.1 567.857L679.8 569.539C696.6 580.191 716.1 588.921 742.8 597.731C786.9 580.271 831.3 562.33 876.8 543.909L877.3 543.669L877.9 543.589C935.1 532.055 982.1 523.245 1025.8 515.717C1048.6 507.067 1068.7 499.538 1087.1 492.65L1087.6 492.49L1088.1 492.41C1121.7 485.682 1161.7 478.233 1203 473.508L1204.4 481.677C1163.7 486.323 1124.3 493.691 1091 500.339C1072.6 507.227 1052.5 514.756 1029.6 523.406L1029.1 523.646L1028.5 523.726C984.9 531.174 938 540.065 881 551.518C835 570.179 790 588.36 745.3 605.981L743.2 606.782L741 606.061C713.7 597.17 693.5 588.28 676.1 577.708C675.5 577.948 674.9 578.269 674.1 578.589C663.4 583.234 652.5 587.479 641.8 591.644C632.8 595.088 623.6 598.692 614.7 602.537L609.9 595.248C619 591.404 628.3 587.8 637.3 584.276C647.8 580.191 658.7 575.946 669.1 571.461C671 570.66 672 570.179 674 569.298L677.1 567.857Z" fill="#E1E9F0"/>
    <path d="M611.4 568.336L615.8 575.144C589.8 585.876 563.6 597.97 540.5 608.622C539 609.343 538 609.744 536.8 610.384C522.8 629.687 512.8 646.426 505.4 662.925L504.8 664.206L503.4 664.927C493.6 669.893 482.4 675.58 471.1 681.186C469.1 691.598 468.4 701.369 469.2 711.221L469.4 713.463L467.1 714.665C462.4 717.067 458 719.31 453.7 721.473C450.8 730.683 449.1 739.894 448.3 749.745L438.8 749.265C439.7 738.452 441.7 728.2 445 718.028L445.5 716.587L447.1 715.786C451.2 713.784 455.3 711.701 459.7 709.459C459.1 699.287 460 689.035 462.3 678.223L462.7 676.541L464.5 675.66C475.8 669.973 487.2 664.206 497.2 659.161C504.8 642.341 515.1 625.282 529.4 605.739L530 604.858L531.1 604.377C533 603.496 534 603.016 536 602.135C558.9 591.242 585.2 579.148 611.4 568.336Z" fill="#E1E9F0"/>
    <path d="M675.9 540.385L678.5 542.227C693.7 552.719 712.1 561.77 736.4 570.58C777.4 552.959 818.5 534.858 860.4 516.277L860.9 516.037L861.5 515.877C914.4 504.423 958.7 495.533 1000.7 487.924C1022 479.274 1040.7 471.666 1058 464.698L1058.4 464.537L1058.9 464.457C1093.8 457.089 1131.3 449.72 1169.5 445.636L1170.8 453.245C1133.3 457.329 1096.3 464.537 1061.8 471.826C1044.5 478.794 1025.7 486.403 1004.4 495.053L1003.9 495.293L1003.3 495.373C961.3 502.982 917.2 511.792 864.4 523.245C821.9 542.067 780.2 560.408 738.7 578.188L736.6 579.069L734.5 578.269C709.7 569.458 690.7 560.328 674.8 549.756C674.3 549.996 673.8 550.236 673.2 550.557C657.8 557.925 641.8 564.413 626.4 570.74C622.8 572.181 619.2 573.703 615.6 575.145L611.2 568.337C614.8 566.815 618.4 565.374 622 563.932C637.3 557.685 653.1 551.277 668.2 543.989C669.9 543.108 670.8 542.708 672.7 541.827L675.9 540.385Z" fill="#E1E9F0"/>
    <path d="M613 541.425L616.9 547.672C587.9 559.365 559.3 572.02 531.6 584.274C529.7 585.075 528.6 585.555 527 586.356C509.8 606.94 497.1 624.56 487.2 641.78L486.6 642.741L485.4 643.302C473.6 648.908 459.9 655.396 446.4 661.803C442.6 673.016 440.4 683.428 439.8 693.76L439.7 695.602L437.7 696.563C432.1 699.286 426.6 701.929 421.3 704.412C416.1 715.705 413.4 724.836 412.8 733.646L404.1 733.245C404.8 723.314 407.8 713.302 413.7 700.728L414.2 699.607L415.5 698.966C420.5 696.563 425.8 694.08 431.2 691.517C432 680.865 434.4 670.053 438.4 658.519L438.9 657.158L440.4 656.437C454 650.03 467.8 643.462 479.7 637.776C489.9 620.315 502.8 602.455 520.2 581.631L520.8 580.91L521.7 580.51C523.9 579.548 525.1 579.068 527.3 578.027C555.1 565.853 583.8 553.198 613 541.425Z" fill="#E1E9F0"/>
    <path d="M674.9 512.751L677.5 514.753C694 527.728 714.1 536.618 730.3 542.946C768 525.165 805.5 506.904 843.9 488.242L844.4 488.002L844.9 487.842C892.8 476.469 935.3 467.258 974.8 459.649C994.5 450.919 1011.8 443.23 1027.9 436.262L1028.3 436.102L1028.8 436.022C1057.2 429.615 1094.8 421.765 1134.1 417.12L1135.4 424.088C1096.8 428.653 1059.7 436.422 1031.7 442.75C1015.7 449.798 998.3 457.407 978.6 466.217L978.1 466.457L977.5 466.537C938.2 474.146 895.8 483.357 848 494.65C809.1 513.552 771 532.053 732.8 550.154L730.8 551.115L728.7 550.314C712.4 543.987 691.7 535.096 674.1 521.961C673.7 522.121 673.4 522.362 672.9 522.602C657 531.092 639.8 538.861 617.1 547.911L613 541.424C635.3 532.534 652.2 524.845 667.8 516.595C669.4 515.714 670.2 515.314 671.8 514.433L674.9 512.751Z" fill="#E1E9F0"/>
    <path d="M614.5 514.594L618 520.36C587.1 532.534 556.1 545.83 526.1 558.564L517.3 562.329C496.9 584.274 481.5 602.775 468.9 620.716L468.4 621.517L467.4 621.917C452.8 628.565 437.2 635.613 421.6 642.581C415.2 655.876 411.5 666.368 409.9 676.46L409.6 678.062L407.9 678.863C400.4 682.307 394.2 685.11 388.4 687.753C382.6 697.204 377.2 707.536 375.9 718.428L368 717.788C369.5 705.453 375.5 694.241 381.9 683.989L382.4 683.108L383.5 682.627C389.2 680.064 395.2 677.341 402.3 674.057C404.2 663.645 408.1 652.833 414.8 639.217L415.3 638.176L416.5 637.615C432.1 630.567 447.8 623.519 462.6 616.871C475.4 598.851 491 580.109 511.6 558.004L512.1 557.443L522.5 553.038C552.4 540.063 583.4 526.848 614.5 514.594Z" fill="#E1E9F0"/>
    <path d="M673.6 485.201L676.1 487.283C688 497.455 702.9 506.105 724.2 515.236C758.5 497.215 792.4 478.874 827 460.052L827.5 459.812L828 459.651C871.6 448.198 910.9 438.907 948.1 431.058C966.1 422.248 982 414.479 996.7 407.431L997.1 407.191L997.6 407.111C1036.9 397.58 1067.5 391.653 1096.9 388.049L1098.1 394.376C1069.3 397.98 1039.1 403.747 1000.4 413.118C985.8 420.166 969.9 427.935 951.8 436.745L951.3 436.985L950.7 437.065C913.7 444.834 874.5 454.125 831 465.498C795.9 484.56 761.4 503.222 726.6 521.563L724.6 522.604L722.5 521.723C700.7 512.513 685.2 503.783 672.7 493.691C672.4 493.851 672.2 494.011 671.8 494.171C655.4 504.023 638.8 512.032 617.9 520.202L614.4 514.435C634.8 506.426 651.1 498.657 667 489.045C668.4 488.164 669.1 487.764 670.6 486.803L673.6 485.201Z" fill="#E1E9F0"/>
    <path d="M615.5 487.843L618.6 493.049C585.1 506.104 551.4 520.04 518.9 533.576L507.6 538.301C483.5 561.928 466 580.83 450.7 599.492L450.2 600.132L449.4 600.453C432.6 607.741 414.7 615.51 396.9 623.279C388.9 636.334 383.4 647.787 379.6 659.321L379.2 660.522L377.9 661.083C369.8 664.607 362.4 667.891 355.2 671.014C347.2 681.586 339.9 691.998 337.9 703.452L330.8 702.651C333 689.916 341 678.703 349.6 667.41L350.1 666.769L351 666.369C358 663.325 365.3 660.122 373.2 656.678C377.2 644.904 382.9 633.211 391.1 619.915L391.6 619.114L392.6 618.714C410.5 610.945 428.4 603.176 445.3 595.808C460.7 576.986 478.4 558.004 502.6 534.217L503.1 533.736L515.7 528.53C548.2 514.834 581.9 500.898 615.5 487.843Z" fill="#E1E9F0"/>
    <path d="M672 457.889L674.4 459.972C686.2 470.224 700.2 479.034 718.3 487.524C749.1 469.263 779.4 450.761 810.3 431.859L810.7 431.619L811.2 431.459C850.6 419.925 886.5 410.394 921.1 402.385C937.3 393.495 951.7 385.646 965.1 378.517L965.5 378.277L966 378.117C1001.8 368.586 1031.3 362.419 1058.7 358.735L1059.9 364.421C1032.9 368.025 1003.9 374.112 968.7 383.403C955.4 390.531 941 398.381 924.7 407.271L924.2 407.511L923.6 407.671C889.2 415.6 853.4 425.131 814.1 436.585C782.7 455.807 751.9 474.629 720.6 493.13L718.7 494.251L716.7 493.29C698.1 484.801 683.6 475.99 671.4 465.739C671.2 465.899 671 466.059 670.7 466.219C654.8 476.951 639.2 484.881 618.6 492.89L615.5 487.684C635.6 479.915 650.7 472.226 666.1 461.814C667.4 460.933 668 460.532 669.3 459.571L672 457.889Z" fill="#E1E9F0"/>
    <path d="M615.7 461.252L618.5 465.898C582.6 479.673 546.4 494.41 511.5 508.587L497.8 514.113C470.3 539.262 450.2 558.965 432.6 578.107L432.2 578.587L431.6 578.828C411.6 587.237 392 595.487 372.5 603.736C362.3 617.592 355 629.766 349.3 641.94L348.9 642.821L347.8 643.302C337.5 647.707 329.5 651.071 322 654.195C313.3 663.886 302.8 675.82 299.4 688.554L293.1 687.513C296.8 673.497 308.1 660.922 317.2 650.751L317.6 650.27L318.3 649.95C325.7 646.826 333.6 643.542 343.7 639.217C349.5 626.883 357 614.549 367.4 600.453L367.9 599.812L368.7 599.492C388.2 591.322 407.9 582.993 428 574.583C445.7 555.441 465.9 535.578 493.5 510.349L493.9 509.948L508.7 503.941C543.6 489.765 579.7 475.028 615.7 461.252Z" fill="#E1E9F0"/>
    <path d="M669.8 430.818L672 432.9C683.1 442.992 695.9 451.562 712.2 459.812C739.6 441.39 766.3 422.729 793.5 403.667L793.9 403.426L794.4 403.266C829.6 391.573 862.2 381.881 894 373.632C908.4 364.661 921.3 356.812 933.3 349.524L933.7 349.284L934.1 349.123C966.9 339.432 994.1 333.185 1019.9 329.421L1021.1 334.466C995.8 338.151 969 344.318 936.8 353.849C924.8 361.137 911.9 368.986 897.5 377.957L897.1 378.197L896.6 378.357C864.9 386.527 832.5 396.218 797.5 407.831C769.8 427.214 742.7 446.196 714.8 464.938L713 466.139L711 465.178C694.3 456.928 681.1 448.358 669.6 438.347C669.4 438.507 669.3 438.587 669.1 438.747C661.9 444.194 654.6 449.88 646.2 454.686C639.9 458.29 632.7 460.933 625.7 463.336C623.3 464.137 620.9 465.018 618.6 465.899L615.9 461.253C618.3 460.372 620.8 459.491 623.1 458.61C629.8 456.207 636.7 453.805 642.5 450.441C650.5 445.875 657.7 440.349 664.7 434.983C665.8 434.102 666.4 433.701 667.5 432.74L669.8 430.818Z" fill="#E1E9F0"/>
    <path d="M614.9 434.902L617.3 438.987C578.8 453.644 540.1 469.102 502.6 484.079L487.8 490.006C465.6 509.228 439.6 532.134 414.8 556.643L414.4 557.043L413.9 557.283C392.8 565.933 370.5 575.144 348.5 584.114C336.1 598.851 326.8 611.666 319.4 624.401L319 625.122L318.2 625.442C307.9 629.687 298.5 633.611 289.4 637.296L289 637.696C278.2 648.348 266 660.362 261.1 673.738L255.7 672.456C260.8 658.2 273.5 645.785 284.6 634.813L285.7 633.691L286.2 633.451C295.2 629.767 304.5 625.923 314.7 621.758C322.3 608.863 331.7 595.968 344.2 581.071L344.6 580.59L345.2 580.35C367.2 571.299 389.6 562.089 410.7 553.439C435.7 528.851 461.7 505.864 484 486.642L484.3 486.321L500 480.074C537.6 465.017 576.4 449.559 614.9 434.902Z" fill="#E1E9F0"/>
    <path d="M666.8 404.146L668.9 406.069C679.4 415.84 691.6 424.41 706.1 432.259C730.1 413.677 753.4 394.856 777 375.634L777.3 375.313L777.7 375.153C808.9 363.219 838.1 353.288 867 344.878C879.8 335.828 891.1 327.899 901.7 320.53L902 320.29L902.4 320.13C932.1 310.278 957.1 303.871 981.1 300.026L982.2 304.431C958.7 308.276 934.1 314.523 905 324.214C894.4 331.503 883 339.512 870.3 348.562L869.9 348.883L869.4 349.043C840.6 357.453 811.6 367.304 780.5 379.158C756.4 398.7 732.8 417.842 708.2 436.824L706.6 438.106L704.7 437.144C689.9 429.375 677.4 420.806 666.6 411.114C666.5 411.275 666.3 411.355 666.1 411.515C660 416.801 653.1 422.728 645.3 427.613C639 431.538 631.6 434.101 624.4 436.584C621.9 437.465 619.5 438.266 617.2 439.147L614.8 435.062C617.2 434.181 619.8 433.3 622.2 432.419C629.1 430.016 636.2 427.533 641.9 424.009C649.4 419.364 656.1 413.597 662 408.471C663 407.59 663.5 407.11 664.5 406.229L666.8 404.146Z" fill="#E1E9F0"/>
    <path d="M612.7 408.872L614.8 412.396C574.7 427.533 534.3 443.472 495.2 458.85L477.7 465.738C451.5 487.363 423.7 510.75 397.4 534.857L397.1 535.178L396.7 535.338C372.5 545.109 348.8 554.64 325.4 564.011C310.8 579.629 299.6 593.085 290.3 606.46L289.9 606.941L289.2 607.181C277.8 611.826 267.4 615.991 257.6 619.916L256.8 620.637C243.8 632.25 230.3 644.184 223.5 658.44L219 657.079C226.1 642.182 240.5 629.367 253.2 618.074L254.6 616.872L255 616.712C264.8 612.788 275 608.623 286.4 604.058C295.8 590.682 307.1 577.066 321.8 561.368L322.1 560.968L322.6 560.727C346.1 551.276 369.8 541.745 394 531.974C420.4 507.866 448.3 484.479 474.5 462.774L474.8 462.534L493.1 455.326C532.1 440.028 572.5 424.089 612.7 408.872Z" fill="#E1E9F0"/>
    <path d="M874.1 290.496C899.6 281.045 921.6 274.718 943.1 270.793L944.2 274.557C922.5 278.562 900.2 284.969 874.1 294.741C864.8 302.189 854.9 310.199 843.8 319.329L843.5 319.649L843 319.81C817.2 328.46 791.4 338.551 764.1 350.645C743.5 370.348 723.2 389.65 701.8 408.793L700.4 410.074L698.6 409.113C685.3 401.744 673.7 393.495 663 383.964C662.8 384.124 662.7 384.284 662.5 384.444L661.9 385.005C656.2 390.451 650.4 396.138 643.3 400.623C637 404.628 629.4 407.271 622 409.754C619.5 410.635 617.1 411.436 614.7 412.317L612.7 408.793C615.1 407.912 617.6 407.031 620.1 406.15C627.2 403.667 634.5 401.184 640.3 397.5C647 393.255 652.7 387.728 658.2 382.442L658.7 381.881C659.6 381 660 380.52 660.9 379.639L662.7 377.797L664.6 379.559C675.1 389.17 686.5 397.419 699.5 404.788C720.4 385.966 740.3 367.064 760.5 347.682L760.8 347.442L761.2 347.281C788.6 335.107 814.5 324.936 840.5 316.205C851.6 307.075 861.5 299.066 870.8 291.617L871.1 291.377L871.5 291.217C872.4 291.056 873.2 290.816 874.1 290.496Z" fill="#E1E9F0"/>
    <path d="M610.5 382.361L612.4 385.645C571.8 400.943 530.7 416.881 491 432.339L470.5 440.348C437.9 466.458 410.8 488.404 383.6 511.711L383.3 511.951L382.9 512.111C356.4 522.603 329.1 533.416 301.5 544.388C286.4 560.087 274.8 573.702 264.8 587.078L264.5 587.558L263.9 587.799C249.8 593.405 237 598.451 225 603.256L224.4 603.737C210.8 615.671 196.7 627.925 189.2 642.582L185 641.22C192.7 625.923 207.8 612.787 221 601.254L222.1 600.293L222.5 600.133C234.5 595.407 247.2 590.361 261.2 584.755C271.3 571.219 283 557.604 298.2 541.825L298.5 541.505L299 541.345C326.6 530.372 354 519.56 380.5 509.068C407.7 485.761 434.9 463.895 467.5 437.705L467.8 437.465L489 429.215C528.8 413.677 569.9 397.659 610.5 382.361Z" fill="#E1E9F0"/>
    <path d="M848.6 257.817C870.8 249.567 890.4 244.281 909.8 241.238L910.7 244.762C890.9 247.885 871.1 253.332 848.2 261.982C838.9 270.552 829.2 279.762 817.7 290.815L817.4 291.135L816.9 291.295C794.7 299.545 772.8 309.076 750 320.369C732.2 340.712 714.6 360.575 696.2 380.038L694.9 381.399L693.1 380.358C681.1 373.55 669.8 365.781 658.9 356.651C658.7 356.811 658.6 356.971 658.4 357.211C652.5 363.539 647.1 369.145 640.2 373.871C634.1 378.035 626.5 380.678 619.1 383.161C616.8 383.962 614.6 384.763 612.4 385.484L610.5 382.2C612.7 381.399 615 380.598 617.3 379.797C624.3 377.395 631.6 374.912 637.2 371.067C643.8 366.582 649 361.136 654.7 354.969C655.5 354.088 655.9 353.607 656.7 352.646L658.3 350.804L660.2 352.406C671 361.616 682.1 369.385 693.9 376.193C711.9 357.131 729.1 337.589 746.5 317.726L746.8 317.406L747.2 317.245C770 305.872 791.9 296.261 814.2 288.012C814.3 288.012 814.4 287.932 814.5 287.932C826 276.879 835.7 267.748 845 259.098L845.3 258.778L845.7 258.618C846.8 258.458 847.7 258.137 848.6 257.817Z" fill="#E1E9F0"/>
</svg>
